<?xml version="1.0" encoding="UTF-8"?><svg id="a" xmlns="http://www.w3.org/2000/svg" viewBox="0 0 504.29 372.72"><path d="M239.25,113.55c1.52.35,1.6-.22,2.43-1.06,5.75-5.83,11.89-17.01,18.05-23.95C313.66,27.73,396.11,3.23,475.75.56c6.1-.2,25.02-1.67,27.75,4.23l.79,277.31c.05,5.82-3.23,7.85-8.55,8.45-21.91,2.48-62.53-1.09-81.8-12.19-24.85-14.31-28.42-47.54.3-59.3-21.03-14.28-46.92,3.3-48.98,27.01-2.67,30.81,23.87,53.01,50.99,60.98,17.15,5.04,36.28,5.82,53.99,5-57.96,47.59-134.98,73.11-209.63,54.64-59-14.61-102.14-57.66-159.94-72.06-22.66-5.64-48.56-7.59-71.92-6.06-7.69.5-25.08,6.87-28.75-2.27V5.81C1.84,2.69,4.05.96,7.72.53c13.04-1.53,34.51.62,48.01,2.03,72.07,7.53,156.85,37.06,183.52,110.99ZM218.24,247.55v-96.5c0-10.79-10.49-33.12-16.59-42.41C166.59,55.25,92,34.05,31.24,32.55v220c64.41-3.47,129.45,15.99,180.5,54.98,8.49-11.53,16.3-23.56,25.1-34.88,30.6-39.37,89.28-97.59,141.91-100.09,53.59-2.54,79.12,50.37,38.49,86.98,23.92,7.94,42.05-10.78,46.55-32.94,8.18-40.29-20.71-75.04-59.33-82.78-77.26-15.48-140.39,51.77-186.22,103.72Z"/></svg>